<svg viewBox="0 0 313 44" xmlns="http://www.w3.org/2000/svg"><title>Fatsoma</title><path d="M299.111 1.13C291.021 1.13 285.221 6.84 285.221 14.65C285.221 22.46 291.021 28.23 299.111 28.23C307.201 28.23 313.001 22.4 313.001 14.59C313.001 6.78 307.141 1.13 299.111 1.13V1.13ZM299.111 25.95C292.601 25.95 287.861 21.17 287.861 14.64C287.861 8.11 292.611 3.39001 299.111 3.39001C305.611 3.39001 310.361 8.23 310.361 14.58C310.361 20.93 305.551 25.94 299.111 25.94V25.95Z"></path>
<path d="M303.331 14.94C304.681 14.24 305.441 13.02 305.441 11.27C305.441 8.35999 303.211 6.48999 299.641 6.48999H293.311V22.34H296.531V16.05H299.171C300.871 16.05 301.571 16.4 301.981 18.21L302.861 22.35H306.141L304.911 17.51C304.621 16.29 304.151 15.47 303.331 14.95V14.94ZM299.401 13.89H296.531V8.93999H299.461C301.281 8.93999 302.391 9.92999 302.391 11.45C302.391 12.97 301.281 13.9 299.401 13.9V13.89Z"></path>
<path d="M257.389 1.10999L242.369 42.9H253.739L256.149 35.77H271.419L273.829 42.9H285.879L270.859 1.10999H257.379H257.389ZM259.059 27.29L262.519 17.15L263.819 12.3L265.119 17.15L268.579 27.29H259.059Z"></path>
<path d="M217.619 23.91L215.699 30.97L213.719 23.91L205.749 1.10999H191.029V42.89H202.349L201.669 13.83L204.759 24.34L211.369 42.89H219.529L226.079 24.52L229.299 13.7L228.619 42.89H239.929V1.10999H225.589L217.619 23.91Z"></path>
<path d="M165.28 0C152.05 0 143.83 8.48 143.83 22.06C143.83 35.64 152.05 44 165.28 44C178.51 44 186.73 35.58 186.73 22.06C186.73 8.54 178.51 0 165.28 0ZM165.28 34.84C159.04 34.84 155.39 30.05 155.39 22.06C155.39 14.07 159.04 9.15 165.28 9.15C171.52 9.15 175.17 14 175.17 22.06C175.17 30.12 171.58 34.84 165.28 34.84V34.84Z"></path>
<path d="M125.941 16.97C121.141 16.05 117.081 15.26 117.081 11.98C117.081 9.95 119.001 8.66 121.841 8.66C125.491 8.66 127.591 10.44 128.271 14.13H140.321C139.081 4.24 131.231 0 122.331 0C111.571 0 105.521 5.78 105.521 13.15C105.521 22.7 113.851 24.51 120.781 26.02C125.721 27.09 129.941 28.01 129.941 31.47C129.941 33.87 127.961 35.34 124.131 35.34C120.301 35.34 117.451 33.25 116.841 29.44H104.971C106.331 39.27 113.811 44 124.011 44C134.211 44 141.501 38.84 141.501 30.05C141.501 19.96 132.931 18.31 125.941 16.97V16.97Z"></path>
<path d="M67.2598 10.2H79.8698V42.89H91.1198V10.2H103.73V1.10999H67.2598V10.2Z"></path>
<path d="M42.9907 1.10999L27.9707 42.9H39.3407L41.7507 35.77H57.0207L59.4307 42.9H71.4807L56.4607 1.10999H42.9807H42.9907ZM44.6607 27.29L48.1207 17.15L49.4207 12.3L50.7207 17.15L54.1807 27.29H44.6607V27.29Z"></path>
<path d="M28.25 18.87H11.31V9.95999H30.72V1.10999H0V42.89H11.31V27.65H28.25V18.87Z"></path>
</svg>
